<svg width="2372" height="2373" viewBox="0 0 2372 2373" fill="none" xmlns="http://www.w3.org/2000/svg">
<path fill-rule="evenodd" clip-rule="evenodd" d="M1689.1 1682.29C1705.15 1682.29 1717.16 1681.45 1725.19 1679.79C1733.14 1678.17 1739.01 1674.63 1742.71 1669.17C1746.41 1663.75 1748.22 1655.27 1748.22 1643.87V1591.07C1748.22 1582.28 1747.17 1575.4 1745.08 1570.41C1743.06 1565.35 1739.71 1561.61 1735.24 1559.11C1730.7 1556.61 1724.91 1554.94 1717.79 1554.16C1710.67 1553.38 1701.1 1552.96 1689.1 1552.96C1673.25 1552.96 1661.39 1553.8 1653.5 1555.41C1645.68 1557.03 1639.96 1560.51 1636.26 1565.88C1632.56 1571.19 1630.53 1579.62 1630.11 1591.07V1643.87C1630.53 1655.37 1632.56 1663.86 1636.19 1669.27C1639.82 1674.63 1645.61 1678.17 1653.5 1679.79C1661.39 1681.45 1673.25 1682.29 1689.1 1682.29ZM1689.1 1736.64C1665.85 1736.64 1645.68 1735.44 1628.51 1733.05C1611.34 1730.65 1596.4 1726.38 1583.69 1720.19C1571.06 1714.05 1561.22 1705.25 1554.24 1693.9C1547.33 1682.55 1543.84 1668.13 1543.84 1650.74V1584.51C1543.84 1567.12 1547.33 1552.7 1554.31 1541.25C1561.29 1529.85 1571.13 1521.1 1583.76 1514.96C1596.4 1508.82 1611.34 1504.6 1628.51 1502.2C1645.68 1499.81 1665.85 1498.61 1689.1 1498.61C1712.41 1498.61 1732.66 1499.81 1749.9 1502.2C1767.14 1504.6 1782.01 1508.82 1794.71 1514.96C1807.34 1521.1 1817.12 1529.85 1824.1 1541.25C1831.01 1552.7 1834.5 1567.12 1834.5 1584.51V1650.74C1834.5 1668.13 1831.01 1682.55 1824.1 1693.9C1817.19 1705.25 1807.41 1714.05 1794.71 1720.19C1782.08 1726.38 1767.14 1730.65 1749.9 1733.05C1732.66 1735.44 1712.41 1736.64 1689.1 1736.64ZM1445.41 1554.84V1734.77H1361.65V1554.84H1281.24V1500.49H1530.02V1554.84H1445.41ZM1121.6 1682.29C1137.65 1682.29 1149.66 1681.45 1157.69 1679.79C1165.64 1678.17 1171.51 1674.63 1175.21 1669.17C1178.91 1663.75 1180.72 1655.27 1180.72 1643.87V1591.07C1180.72 1582.28 1179.67 1575.4 1177.58 1570.41C1175.56 1565.35 1172.21 1561.61 1167.74 1559.11C1163.2 1556.61 1157.41 1554.94 1150.29 1554.16C1143.17 1553.38 1133.6 1552.96 1121.6 1552.96C1105.75 1552.96 1093.88 1553.8 1086 1555.41C1078.18 1557.03 1072.46 1560.51 1068.76 1565.88C1065.06 1571.19 1063.03 1579.62 1062.61 1591.07V1643.87C1063.03 1655.37 1065.06 1663.86 1068.69 1669.27C1072.32 1674.63 1078.11 1678.17 1086 1679.79C1093.88 1681.45 1105.75 1682.29 1121.6 1682.29ZM1121.6 1736.64C1098.35 1736.64 1078.18 1735.44 1061.01 1733.05C1043.84 1730.65 1028.9 1726.38 1016.19 1720.19C1003.56 1714.05 993.718 1705.25 986.737 1693.9C979.826 1682.55 976.337 1668.13 976.337 1650.74V1584.51C976.337 1567.12 979.826 1552.7 986.807 1541.25C993.788 1529.85 1003.63 1521.1 1016.26 1514.96C1028.9 1508.82 1043.84 1504.6 1061.01 1502.2C1078.18 1499.81 1098.35 1498.61 1121.6 1498.61C1144.91 1498.61 1165.15 1499.81 1182.4 1502.2C1199.64 1504.6 1214.51 1508.82 1227.21 1514.96C1239.84 1521.1 1249.62 1529.85 1256.6 1541.25C1263.51 1552.7 1267 1567.12 1267 1584.51V1650.74C1267 1668.13 1263.51 1682.55 1256.6 1693.9C1249.69 1705.25 1239.91 1714.05 1227.21 1720.19C1214.58 1726.38 1199.64 1730.65 1182.4 1733.05C1165.15 1735.44 1144.91 1736.64 1121.6 1736.64ZM624.109 1555.15L632.486 1734.77H548.721V1500.49H681.418L741.379 1647.61H744.31L801.27 1500.49H937.386V1734.77H853.622L861.999 1555.15H859.067L779.492 1734.77H707.035L626.622 1555.15H624.109ZM1169.05 682.504H552.312V1388.63H701.391L700.854 1113.67H1129.66V975.394H700.854V832.935H1169.05V682.504ZM1716.34 915.709V832.935H1377.99L1378.09 1255.39H1716.34V1138.01L1541.05 1138.34V998.107H1846.72V1328.55L1782.85 1388.63H1297.61L1232.85 1326.75L1232.83 744.356L1297.68 682.51L1781.94 682.504L1846.72 744.291V915.431L1716.34 915.709L1716.34 915.709ZM1265.41 2151.47C1711.96 2094.11 2154.61 1733.98 2149.86 1208.86C2150.19 1200.32 2155.82 1200.83 2156.04 1209.56C2160.11 1620.37 1833.96 2120.81 1265.41 2151.47ZM1543.61 2130.85C1549.62 2127.25 1547.98 2124.38 1541.22 2126.82C1431.16 2168.62 1310.09 2179.15 1185.15 2179.15C659.603 2179.15 233.563 1748.38 233.563 1217.01C233.563 685.636 659.603 254.872 1185.15 254.872C1231 254.872 1276.71 257.646 1321.88 263.167C1347.95 266.352 1380.25 260.033 1405.88 265.044C1457.88 275.207 1508.63 286.154 1557.18 304.989C1590.22 317.807 1623.97 327.761 1655.14 344.596C1737.6 389.137 1811.59 451.633 1878.74 515.967C1885.59 522.532 1898.74 526.465 1905.35 533.314C1977.21 607.787 2035.6 697.908 2077.51 796.042C2104.83 860.024 2123.3 928.413 2140.29 994.653C2142.61 1003.72 2138.07 1021.17 2140.13 1030.32C2152.75 1086.41 2151.28 1203.74 2162.41 1203.83C2162.4 1203.19 2162.4 1202.54 2162.39 1201.9C2160.67 1063.72 2156.02 945.386 2104.02 826.134C2058.61 721.971 1945.75 505.03 1731.17 358.188C1636.54 293.435 1460.87 217.559 1374.86 211.816C1356.18 210.569 1359.65 213.384 1374.7 216.684C1481.91 240.184 1596.54 285.779 1720.27 364.919C1676.93 339.642 1629.41 317.91 1579.25 299.836C1573.13 297.627 1566.47 301.117 1560.27 299.017C1551.97 296.211 1544.15 287.646 1535.68 285.247C1531.07 283.943 1525.81 286.819 1521.18 285.543C1462.08 269.253 1402.23 251.342 1340.74 243.514C1292.44 237.363 1243.87 234.381 1196.15 234.381C1074.71 234.381 959.268 257.835 851.791 297.566C847.908 299.001 842.114 294.903 838.254 296.384C468.552 438.324 207.455 798.272 207.455 1215.1C207.455 1569.31 391.386 1886.48 675.116 2058.85C756.23 2108.13 846.848 2143.1 942.41 2166.84C946.947 2167.96 955.055 2164.7 959.556 2165.94C1036.82 2187.3 1114.12 2195.89 1196.15 2195.82C1318.29 2195.72 1445.97 2174.67 1543.61 2130.85H1543.61ZM597.227 369.67C604.386 345.481 715.293 293.121 799.395 255.891C814.004 249.424 824.627 240.443 836.99 235.931C842.918 233.768 852.289 239.26 858.036 236.601C897.496 218.343 931.972 218.91 968.935 211.246C990.413 206.792 1010.48 198.62 1032.36 195.802C1042.64 194.476 1053.62 197.851 1064 196.901C1073.91 195.995 1083.21 190.745 1093.21 190.187C1167.51 186.041 1244.34 191.639 1324.38 208.504C1068.55 177.525 826.168 231.248 597.227 369.67ZM559.234 371.052C566.936 371.052 573.181 377.041 573.181 384.43C573.181 391.818 566.936 397.807 559.234 397.807C551.531 397.807 545.287 391.818 545.287 384.43C545.287 377.041 551.531 371.052 559.234 371.052ZM1980.84 553.591C1988.81 553.591 1995.27 560.052 1995.27 568.023C1995.27 575.994 1988.81 582.455 1980.84 582.455C1972.88 582.455 1966.42 575.994 1966.42 568.023C1966.42 560.052 1972.88 553.591 1980.84 553.591ZM1965.29 646.6C1973.35 646.6 1979.88 653.133 1979.88 661.193C1979.88 669.253 1973.35 675.786 1965.29 675.786C1957.24 675.786 1950.71 669.253 1950.71 661.193C1950.71 653.133 1957.24 646.6 1965.29 646.6ZM2086.81 686.37C2092.38 686.37 2096.91 690.893 2096.91 696.472C2096.91 702.052 2092.38 706.575 2086.81 706.575C2081.23 706.575 2076.71 702.052 2076.71 696.472C2076.71 690.893 2081.23 686.37 2086.81 686.37ZM1604.92 2135.04C1610.68 2135.04 1615.34 2139.54 1615.34 2145.08C1615.34 2150.62 1610.68 2155.12 1604.92 2155.12C1599.17 2155.12 1594.5 2150.62 1594.5 2145.08C1594.5 2139.54 1599.17 2135.04 1604.92 2135.04ZM409.828 1889C417.796 1889 424.255 1895.5 424.255 1903.52C424.255 1911.54 417.796 1918.04 409.828 1918.04C401.859 1918.04 395.4 1911.54 395.4 1903.52C395.4 1895.5 401.859 1889 409.828 1889ZM469.462 1924.49C476.722 1924.49 482.607 1930.42 482.607 1937.72C482.607 1945.03 476.722 1950.95 469.462 1950.95C462.202 1950.95 456.317 1945.03 456.317 1937.72C456.317 1930.42 462.202 1924.49 469.462 1924.49ZM372.316 1589.23C385.065 1589.23 395.4 1599.29 395.4 1611.7C395.4 1624.11 385.065 1634.17 372.316 1634.17C359.567 1634.17 349.232 1624.11 349.232 1611.7C349.232 1599.29 359.567 1589.23 372.316 1589.23ZM353.721 1795.34C217.34 1607.35 184.21 1426.43 162.512 1266.55C156.235 1220.3 140.773 1175.97 141.57 1132.21C144.968 945.634 210.808 781.097 323.211 633.524C326.699 628.945 333.28 630.232 336.857 625.685C337.752 624.547 335.604 617.559 336.504 616.424C373.62 569.622 415.442 524.535 461.448 481C407.923 541.167 362.091 599.942 323.582 657.996C322.218 660.052 319.26 654.734 317.914 656.789C305.372 675.939 295.229 702.388 284.266 721.41C205.77 857.62 167.443 991.173 164.39 1130.94C163.46 1173.57 159.397 1208.59 164.888 1252.63C185.169 1415.26 260.81 1591.91 353.721 1795.34ZM2098.95 750.388C2129.75 790.888 2147.96 844.825 2164.75 892.354C2169.11 904.702 2172.69 916.357 2176.6 928.683C2176.87 929.544 2179.42 929.502 2179.67 930.38C2179.74 930.609 2179.8 930.841 2179.87 931.071C2181.68 937.544 2179.51 947.206 2181.51 953.607C2217.18 1067.77 2215.05 1187.5 2217.07 1284.24C2217.34 1297.08 2217.37 1309.79 2217.16 1322.38C2216.63 1355.14 2205.15 1389.29 2200.49 1420.24C2163.66 1665.18 1975.56 1959.51 1635.02 2124.13C1949.83 1946.3 2142.88 1713.63 2193.34 1424.7C2201.34 1378.86 2196.07 1329.58 2197.39 1281.02C2199.22 1214.1 2210.09 1136.96 2199.2 1064.93C2183.75 962.63 2144.57 859.898 2098.95 750.388Z" fill="#151616" stroke="black" stroke-width="0.216" stroke-linecap="round" stroke-linejoin="round"/>
</svg>
